<?xml version="1.0" encoding="iso-8859-1"?>
<!-- Generator: Adobe Illustrator 18.1.1, SVG Export Plug-In . SVG Version: 6.00 Build 0)  -->
<svg version="1.1" id="Capa_1" xmlns="http://www.w3.org/2000/svg" xmlns:xlink="http://www.w3.org/1999/xlink" x="0px" y="0px"
	 viewBox="0 0 88 88" style="enable-background:new 0 0 88 88;" xml:space="preserve">
<g>
	<path style="fill:#030104;" d="M79.2,22H8.8C3.96,22,0,25.96,0,30.8v26.4C0,62.04,3.96,66,8.8,66h70.4c4.84,0,8.8-3.96,8.8-8.8
		V30.8C88,25.96,84.04,22,79.2,22z M79.2,57.2H8.8V30.8h70.4C79.2,30.8,79.2,57.2,79.2,57.2z M52.8,35.288H35.2v17.424h17.6
		C52.8,52.712,52.8,35.288,52.8,35.288z M74.8,35.288H57.2v17.424h17.6V35.288z M30.8,35.288H13.2v17.424h17.6
		C30.8,52.712,30.8,35.288,30.8,35.288z"/>
</g>
<g>
</g>
<g>
</g>
<g>
</g>
<g>
</g>
<g>
</g>
<g>
</g>
<g>
</g>
<g>
</g>
<g>
</g>
<g>
</g>
<g>
</g>
<g>
</g>
<g>
</g>
<g>
</g>
<g>
</g>
</svg>
